<svg width="124" height="125" viewBox="0 0 124 125" fill="none" xmlns="http://www.w3.org/2000/svg">
<path d="M61.9997 26.3335C65.4613 26.3335 68.9747 26.7985 72.333 27.6768C81.5297 17.3435 98.3213 13.0035 105.503 16.0001C112.736 18.9968 103.333 52.1668 103.333 52.1668C106.278 57.6951 108.5 63.7401 108.5 69.9401C108.5 92.9835 87.678 109 61.9997 109C36.3213 109 15.4997 93.5001 15.4997 69.9401C15.4997 63.4818 18.083 57.5401 20.6663 52.1668C20.6663 52.1668 10.9013 18.9968 18.083 16.0001C25.2647 13.0035 42.4697 17.1885 51.6663 27.5218C55.0558 26.7422 58.5217 26.3436 61.9997 26.3335Z" stroke="black" stroke-opacity="0.3" stroke-width="10.3333" stroke-linecap="round" stroke-linejoin="round"/>
<path d="M41.3333 72.8334V75.4167" stroke="black" stroke-opacity="0.3" stroke-width="10.3333" stroke-linecap="round" stroke-linejoin="round"/>
<path d="M82.6667 72.8334V75.4167" stroke="black" stroke-opacity="0.3" stroke-width="10.3333" stroke-linecap="round" stroke-linejoin="round"/>
<path d="M58.125 84.4584H65.875L62 88.3334L58.125 84.4584Z" stroke="black" stroke-opacity="0.3" stroke-width="10.3333" stroke-linecap="round" stroke-linejoin="round"/>
</svg>
