<svg width="33" height="32" viewBox="0 0 33 32" fill="none" xmlns="http://www.w3.org/2000/svg">
<g clip-path="url(#clip0_19_100)">
<path fill-rule="evenodd" clip-rule="evenodd" d="M16.4523 0.400024C7.6311 0.400024 0.5 7.55003 0.5 16.3956C0.5 23.4663 5.06914 29.4515 11.4078 31.5698C12.2002 31.7291 12.4905 31.2256 12.4905 30.8022C12.4905 30.4313 12.4644 29.1603 12.4644 27.8359C8.02686 28.7894 7.10278 25.9291 7.10278 25.9291C6.38963 24.0753 5.33298 23.5989 5.33298 23.5989C3.88057 22.619 5.43878 22.619 5.43878 22.619C7.04988 22.7249 7.89527 24.2609 7.89527 24.2609C9.32122 26.6971 11.619 26.0087 12.5434 25.5849C12.6753 24.5521 13.0982 23.8371 13.5472 23.4399C10.0079 23.0691 6.28416 21.6921 6.28416 15.548C6.28416 13.8001 6.91763 12.3701 7.92139 11.258C7.76302 10.8608 7.20824 9.21858 8.08008 7.0206C8.08008 7.0206 9.42702 6.5968 12.4641 8.6625C13.7644 8.31237 15.1053 8.13425 16.4523 8.13275C17.7993 8.13275 19.1723 8.31833 20.4402 8.6625C23.4776 6.5968 24.8246 7.0206 24.8246 7.0206C25.6964 9.21858 25.1413 10.8608 24.9829 11.258C26.0131 12.3701 26.6205 13.8001 26.6205 15.548C26.6205 21.6921 22.8967 23.0425 19.331 23.4399C19.9122 23.943 20.4138 24.8963 20.4138 26.4059C20.4138 28.5509 20.3877 30.2724 20.3877 30.8018C20.3877 31.2256 20.6783 31.7291 21.4704 31.5701C27.8091 29.4511 32.3782 23.4663 32.3782 16.3956C32.4043 7.55003 25.2471 0.400024 16.4523 0.400024Z" fill="currentColor"/>
</g>
<defs>
<clipPath id="clip0_19_100">
<rect width="32" height="31.2" fill="currentColor" transform="translate(0.5 0.400024)"/>
</clipPath>
</defs>
</svg>
