<svg width="58" height="58" viewBox="0 0 58 58" fill="none" xmlns="http://www.w3.org/2000/svg">
<rect width="57.986" height="58" rx="28.993" fill="white"/>
<path fill-rule="evenodd" clip-rule="evenodd" d="M53.986 28.1541H32.8439C32.3884 26.5434 30.9074 25.3632 29.1508 25.3632C27.0314 25.3632 25.3133 27.0813 25.3133 29.2007C25.3133 31.3202 27.0314 33.0383 29.1508 33.0383C30.9074 33.0383 32.3884 31.8581 32.8439 30.2474H53.9694C53.3195 43.475 42.3889 54 29 54C15.1929 54 4 42.8071 4 29C4 15.1929 15.1929 4 29 4C42.524 4 53.5399 14.7386 53.986 28.1541ZM29.2518 14C20.4704 14 14 20.6324 14 29.2256C14 37.8189 20.4704 44.4512 29.2518 44.4512C34.9134 44.4512 39.824 41.4522 42.1926 37.0114L35.78 33.2627C34.6245 35.6273 32.1404 37.1268 29.194 37.1268C24.7456 37.1268 21.4526 33.8394 21.4526 29.2256C21.4526 24.6695 24.7456 21.3821 29.194 21.3821C32.1981 21.3821 34.6823 22.8239 35.8377 25.1885L42.3082 21.4975C39.824 16.999 34.9134 14 29.2518 14Z" fill="black"/>
</svg>
